<svg width="44" height="48" viewBox="0 0 44 48" fill="none" xmlns="http://www.w3.org/2000/svg">
<rect width="44" height="48" rx="12" fill="#10B981"/>
<path d="M19.4238 17.8223C20.0345 17.8268 20.5814 17.9476 21.0645 18.1846C21.5521 18.417 21.9349 18.7428 22.2129 19.1621C22.4909 19.5768 22.6322 20.0462 22.6367 20.5703C22.6322 21.099 22.4909 21.5706 22.2129 21.9854C21.9349 22.4001 21.5521 22.7236 21.0645 22.9561C20.5814 23.1885 20.0345 23.3047 19.4238 23.3047C18.8086 23.3047 18.2549 23.1885 17.7627 22.9561C17.2751 22.7236 16.8923 22.4001 16.6143 21.9854C16.3363 21.5706 16.1973 21.099 16.1973 20.5703C16.1973 20.0462 16.3363 19.5768 16.6143 19.1621C16.8923 18.7428 17.2751 18.417 17.7627 18.1846C18.2549 17.9476 18.8086 17.8268 19.4238 17.8223ZM19.4238 18.916C19.0501 18.9115 18.7129 18.9775 18.4121 19.1143C18.1159 19.251 17.8835 19.4469 17.7148 19.7021C17.5462 19.9528 17.4642 20.2422 17.4688 20.5703C17.4642 20.903 17.5439 21.1969 17.708 21.4521C17.8766 21.7074 18.109 21.9056 18.4053 22.0469C18.7061 22.1836 19.0456 22.252 19.4238 22.252C19.7975 22.252 20.1325 22.1813 20.4287 22.04C20.7249 21.8988 20.9574 21.7028 21.126 21.4521C21.2946 21.1969 21.3789 20.903 21.3789 20.5703C21.3789 20.2422 21.2946 19.9528 21.126 19.7021C20.9574 19.4469 20.7227 19.251 20.4219 19.1143C20.1257 18.9775 19.793 18.9115 19.4238 18.916ZM26.1094 23.6465H24.8105V17.4121H26.1094V23.6465ZM26.1094 27.2969H19.3555V28.4727H26.5195V29.5117H18.0977V26.3262H24.8242V25.2461H18.0566V24.207H26.1094V27.2969Z" fill="#F8FAFC"/>
</svg>
