<svg width="62" height="24" viewBox="0 0 62 24" fill="none" xmlns="http://www.w3.org/2000/svg">
<rect width="24" height="24" rx="12" fill="#18212F"/>
<rect x="0.5" y="0.5" width="23" height="23" rx="11.5" stroke="#F8FAFC" stroke-opacity="0.1"/>
<circle cx="12" cy="12" r="6" fill="#10B981"/>
<path d="M37.3281 13.0312V14.7656H39.8594V13.0312H41V18.5781H36.1719V13.0312H37.3281ZM34.7812 8.6875C34.7734 6.78906 36.2734 5.5 38.3906 5.5C40.2578 5.5 41.6719 6.55469 41.9375 8.15625H44.8438V4.875H46.0781V12.2344H44.8438V9.17188H41.9453C41.7031 10.8125 40.2734 11.8906 38.3906 11.8906C36.2734 11.8906 34.7734 10.5938 34.7812 8.6875ZM35.9531 8.6875C35.9531 9.96094 36.9609 10.8672 38.3906 10.875C39.7891 10.8672 40.7969 9.96094 40.7969 8.6875C40.7969 7.42188 39.7891 6.53125 38.3906 6.53125C36.9609 6.53125 35.9531 7.42188 35.9531 8.6875ZM37.3281 17.6094H39.8594V15.7031H37.3281V17.6094ZM41.1875 17.75C42.8594 17.0547 43.7422 15.5312 43.75 14.125V12.9375H44.9688V14.125C44.9531 15.5859 45.8359 17.125 47.5312 17.75L46.8906 18.6875C45.6094 18.1797 44.7734 17.1953 44.3438 16.0469C43.9062 17.1797 43.0547 18.1641 41.8281 18.6875L41.1875 17.75ZM54.7188 5.1875C57.7422 5.1875 59.6172 6.16406 59.625 7.82812C59.6172 9.46875 57.7422 10.4297 54.7188 10.4219C51.6953 10.4297 49.7969 9.46875 49.7969 7.82812C49.7969 6.16406 51.6953 5.1875 54.7188 5.1875ZM48.3906 12.6406V11.625H61.0469V12.6406H48.3906ZM49.9375 18.5781V14.0156H59.5V18.5781H49.9375ZM51.0625 7.82812C51.0547 8.83594 52.4688 9.44531 54.7188 9.45312C56.9453 9.44531 58.3672 8.83594 58.375 7.82812C58.3672 6.78906 56.9453 6.17188 54.7188 6.17188C52.4688 6.17188 51.0547 6.78906 51.0625 7.82812ZM51.1562 17.5781H58.2969V15H51.1562V17.5781Z" fill="white"/>
</svg>
