<svg width="46" height="47" viewBox="0 0 46 47" fill="none" xmlns="http://www.w3.org/2000/svg">
<path d="M6.6512 29.2323C8.33551 38.263 17.0218 44.2185 26.0525 42.5342C35.0833 40.8499 41.0387 32.1636 39.3544 23.1328C37.6701 14.1021 28.9838 8.14665 19.9531 9.83096C10.9224 11.5153 4.96689 20.2015 6.6512 29.2323Z" fill="#64748B"/>
<circle cx="4.15839" cy="4.15839" r="4.15839" transform="matrix(-0.983048 0.183347 0.183347 0.983048 10.0078 23.2686)" fill="#64748B"/>
<ellipse cx="4.15839" cy="4.15839" rx="4.15839" ry="4.15839" transform="matrix(-0.983048 0.183347 0.183347 0.983048 42.7812 23.2686)" fill="#64748B"/>
<path fill-rule="evenodd" clip-rule="evenodd" d="M6.34074 22.0195C8.82393 23.7279 11.9601 24.438 15.1027 23.7323C18.2962 23.0152 20.8584 20.9794 22.3638 18.311C24.7695 22.5502 29.6771 24.9199 34.6008 23.8143C36.3699 23.417 37.9454 22.615 39.2547 21.5249C39.2056 21.2414 39.1493 20.9576 39.0855 20.6737C37.0363 11.5476 28.1088 5.78104 19.1456 7.79375C12.1567 9.3631 7.20967 15.1986 6.34074 22.0195Z" fill="#1E293B"/>
<path fill-rule="evenodd" clip-rule="evenodd" d="M34.9528 12.7039L10.7098 12.4744C11.2889 7.78901 16.5465 4.15702 22.9106 4.21725C29.2746 4.27747 34.4625 8.00831 34.9528 12.7039Z" fill="#475569"/>
<rect x="6.67188" y="12.4365" width="32.3282" height="4.04102" rx="1.32284" transform="rotate(0.542194 6.67188 12.4365)" fill="#475569"/>
<path d="M18.8446 7.16584C18.8657 4.93415 20.692 3.14212 22.9237 3.16324C25.1553 3.18436 26.9474 5.01063 26.9263 7.24232L26.8753 12.6301L18.7936 12.5536L18.8446 7.16584Z" fill="#334155"/>
</svg>
