<?xml version="1.0" standalone="no"?>
<!DOCTYPE svg PUBLIC "-//W3C//DTD SVG 20010904//EN"
 "http://www.w3.org/TR/2001/REC-SVG-20010904/DTD/svg10.dtd">
<svg version="1.0" xmlns="http://www.w3.org/2000/svg"
 width="512.000000pt" height="512.000000pt" viewBox="0 0 512.000000 512.000000"
 preserveAspectRatio="xMidYMid meet">

<g transform="translate(0.000000,512.000000) scale(0.100000,-0.100000)"
fill="#000000" stroke="none">
<path d="M4026 5108 c-137 -18 -18 95 -1808 -1696 l-1638 -1637 -285 -823
c-157 -453 -285 -839 -285 -857 0 -40 25 -72 66 -84 27 -8 145 31 864 280
l834 288 1633 1633 c1867 1866 1698 1680 1698 1873 0 176 9 163 -419 591 -308
308 -370 366 -423 393 -73 36 -154 50 -237 39z m147 -204 c44 -22 704 -680
728 -726 23 -45 25 -133 5 -183 -8 -19 -97 -118 -205 -227 l-191 -193 -465
465 -465 465 193 193 c105 107 206 200 222 208 41 18 139 18 178 -2z m-263
-992 c253 -251 460 -462 460 -467 0 -12 -205 -215 -217 -215 -4 0 -215 207
-468 460 l-460 460 110 110 c60 60 111 110 112 110 1 0 209 -206 463 -458z
m-660 -57 c0 -5 -471 -481 -1047 -1057 -834 -834 -1053 -1048 -1073 -1048 -37
0 -239 36 -247 44 -4 4 492 506 1102 1116 l1110 1110 77 -77 c43 -43 78 -82
78 -88z m-587 -1518 l-1058 -1059 -153 5 c-83 2 -155 6 -158 9 -3 4 -8 74 -11
158 l-6 152 1059 1059 1059 1059 162 -162 163 -163 -1057 -1058z m1282 833
l80 -80 -685 -683 c-1168 -1164 -1540 -1531 -1546 -1524 -8 8 -44 210 -44 247
0 20 215 240 1047 1072 577 577 1053 1048 1058 1048 6 0 46 -36 90 -80z
m-3035 -1580 c74 -11 145 -23 156 -25 21 -5 22 -12 29 -199 4 -113 12 -204 19
-217 20 -40 52 -47 254 -55 185 -7 193 -8 197 -28 10 -43 55 -339 53 -341 -2
-1 -181 -63 -398 -138 -328 -113 -397 -134 -405 -122 -5 8 -26 42 -45 77 -46
80 -149 184 -228 228 -34 19 -69 40 -76 45 -12 8 9 77 118 390 72 209 135 388
139 398 4 12 14 16 29 13 13 -3 84 -15 158 -26z m-392 -1035 c51 -44 127 -154
115 -166 -12 -11 -364 -132 -369 -126 -4 4 77 251 115 350 l11 28 41 -23 c23
-13 62 -41 87 -63z"/>
</g>
</svg>
