<svg width="62" height="24" viewBox="0 0 62 24" fill="none" xmlns="http://www.w3.org/2000/svg">
<rect width="24" height="24" rx="12" fill="#18212F"/>
<rect x="0.5" y="0.5" width="23" height="23" rx="11.5" stroke="#F8FAFC" stroke-opacity="0.1"/>
<path d="M45.4219 4.875V7.78125H47.5156V8.8125H45.4219V11.8906H44.2031V4.875H45.4219ZM35.2344 11.2188V5.5H36.4688V10.1562C38.4375 10.1641 40.4766 10.0234 42.7344 9.5625L42.8906 10.5938C40.5156 11.0781 38.4297 11.2109 36.3438 11.2188H35.2344ZM36.5625 13.5469V12.5625H45.4219V15.9531H37.8125V17.5781H45.9375V18.5781H36.5938V14.9844H44.2031V13.5469H36.5625ZM59.4688 4.875V10.4062H61.4375V11.4531H59.4688V18.7656H58.2344V4.875H59.4688ZM48.1875 14.9531C49.8906 13.6875 50.3828 11.0156 50.3906 9.0625V7.32812H48.6406V6.29688H52.6094V7.32812H51.5469V9.0625C51.5547 10.5703 51.7656 12.8359 52.9219 14.3438C54.0469 12.8672 54.2812 10.6484 54.2969 9.0625V7.32812H53.2188V6.29688H57.0781V7.32812H55.4531V9.0625C55.4531 11.1016 55.9297 13.7109 57.6562 14.9531L56.8438 15.8594C55.8125 15.0625 55.2031 13.7422 54.875 12.3047C54.5703 13.7656 53.9844 15.1484 52.9062 15.9688C51.8438 15.1484 51.2656 13.7422 50.9531 12.2891C50.625 13.7266 50.0156 15.0547 49 15.8594L48.1875 14.9531Z" fill="white"/>
</svg>
